<?xml version="1.0" encoding="UTF-8" standalone="no"?>
<!DOCTYPE svg PUBLIC "-//W3C//DTD SVG 1.1//EN"
 "http://www.w3.org/Graphics/SVG/1.1/DTD/svg11.dtd">
<!-- Generated by graphviz version 2.40.1 (20161225.0304)
 -->
<!-- Title: inheritance3d0a69428c Pages: 1 -->
<svg width="483pt" height="286pt"
 viewBox="0.00 0.00 483.00 286.00" xmlns="http://www.w3.org/2000/svg" xmlns:xlink="http://www.w3.org/1999/xlink">
<g id="graph0" class="graph" transform="scale(1 1) rotate(0) translate(4 282)">
<title>inheritance3d0a69428c</title>
<!-- BackgroundStep -->
<g id="node1" class="node">
<title>BackgroundStep</title>
<g id="a_node1"><a xlink:href="../api/iris_pipeline.BackgroundStep.html#iris_pipeline.BackgroundStep" xlink:title="BackgroundStep: &#160;Subtract background exposures from target exposures." target="_top">
<polygon fill="#ffffff" stroke="#000000" stroke-width=".5" points="284,-278 188,-278 188,-259 284,-259 284,-278"/>
<text text-anchor="middle" x="236" y="-266" font-family="Vera Sans, DejaVu Sans, Liberation Sans, Arial, Helvetica, sans" font-size="10.00" fill="#000000">BackgroundStep</text>
</a>
</g>
</g>
<!-- Step -->
<g id="node2" class="node">
<title>Step</title>
<g id="a_node2"><a xlink:title="Step">
<polygon fill="#ffffff" stroke="#000000" stroke-width=".5" points="95,-148 41,-148 41,-129 95,-129 95,-148"/>
<text text-anchor="middle" x="68" y="-136" font-family="Vera Sans, DejaVu Sans, Liberation Sans, Arial, Helvetica, sans" font-size="10.00" fill="#000000">Step</text>
</a>
</g>
</g>
<!-- Step&#45;&gt;BackgroundStep -->
<g id="edge1" class="edge">
<title>Step&#45;&gt;BackgroundStep</title>
<path fill="none" stroke="#000000" stroke-width=".5" d="M95.2865,-140.4068C108.9634,-142.6638 124.926,-147.45 136,-157.5 168.8211,-187.2863 139.2043,-220.6858 172,-250.5 175.3869,-253.579 179.2602,-256.1359 183.388,-258.2588"/>
<polygon fill="#000000" stroke="#000000" stroke-width=".5" points="182.6855,-259.8622 187.956,-260.3961 184.1688,-256.692 182.6855,-259.8622"/>
</g>
<!-- DQInitStep -->
<g id="node3" class="node">
<title>DQInitStep</title>
<g id="a_node3"><a xlink:href="../api/iris_pipeline.DQInitStep.html#iris_pipeline.DQInitStep" xlink:title="Initialize the Data Quality extension from the" target="_top">
<polygon fill="#ffffff" stroke="#000000" stroke-width=".5" points="270.5,-241 201.5,-241 201.5,-222 270.5,-222 270.5,-241"/>
<text text-anchor="middle" x="236" y="-229" font-family="Vera Sans, DejaVu Sans, Liberation Sans, Arial, Helvetica, sans" font-size="10.00" fill="#000000">DQInitStep</text>
</a>
</g>
</g>
<!-- Step&#45;&gt;DQInitStep -->
<g id="edge2" class="edge">
<title>Step&#45;&gt;DQInitStep</title>
<path fill="none" stroke="#000000" stroke-width=".5" d="M95.1641,-141.4924C108.4854,-144.0426 124.1664,-148.7634 136,-157.5 159.8037,-175.0739 148.2113,-195.9058 172,-213.5 179.0701,-218.7291 187.6005,-222.44 196.0957,-225.0732"/>
<polygon fill="#000000" stroke="#000000" stroke-width=".5" points="196.079,-226.8882 201.3673,-226.5775 197.0394,-223.5226 196.079,-226.8882"/>
</g>
<!-- FlatFieldStep -->
<g id="node4" class="node">
<title>FlatFieldStep</title>
<g id="a_node4"><a xlink:href="../api/iris_pipeline.FlatFieldStep.html#iris_pipeline.FlatFieldStep" xlink:title="Flat&#45;field a science image using a flatfield reference image." target="_top">
<polygon fill="#ffffff" stroke="#000000" stroke-width=".5" points="275.5,-204 196.5,-204 196.5,-185 275.5,-185 275.5,-204"/>
<text text-anchor="middle" x="236" y="-192" font-family="Vera Sans, DejaVu Sans, Liberation Sans, Arial, Helvetica, sans" font-size="10.00" fill="#000000">FlatFieldStep</text>
</a>
</g>
</g>
<!-- Step&#45;&gt;FlatFieldStep -->
<g id="edge3" class="edge">
<title>Step&#45;&gt;FlatFieldStep</title>
<path fill="none" stroke="#000000" stroke-width=".5" d="M95.2436,-144.6952C107.8519,-147.92 122.9042,-152.2839 136,-157.5 152.8075,-164.1945 155.1982,-169.7912 172,-176.5 178.321,-179.0239 185.1258,-181.3402 191.8561,-183.4105"/>
<polygon fill="#000000" stroke="#000000" stroke-width=".5" points="191.6871,-185.1866 196.979,-184.9451 192.6915,-181.8338 191.6871,-185.1866"/>
</g>
<!-- MergeSubarraysStep -->
<g id="node5" class="node">
<title>MergeSubarraysStep</title>
<g id="a_node5"><a xlink:href="../api/iris_pipeline.merge_subarrays.MergeSubarraysStep.html#iris_pipeline.merge_subarrays.MergeSubarraysStep" xlink:title="ParseSubarrayMapStep: Parse a subarray map" target="_top">
<polygon fill="#ffffff" stroke="#000000" stroke-width=".5" points="294.5,-167 177.5,-167 177.5,-148 294.5,-148 294.5,-167"/>
<text text-anchor="middle" x="236" y="-155" font-family="Vera Sans, DejaVu Sans, Liberation Sans, Arial, Helvetica, sans" font-size="10.00" fill="#000000">MergeSubarraysStep</text>
</a>
</g>
</g>
<!-- Step&#45;&gt;MergeSubarraysStep -->
<g id="edge4" class="edge">
<title>Step&#45;&gt;MergeSubarraysStep</title>
<path fill="none" stroke="#000000" stroke-width=".5" d="M95.366,-141.595C116.1117,-143.9412 145.4842,-147.2631 172.0246,-150.2647"/>
<polygon fill="#000000" stroke="#000000" stroke-width=".5" points="172.1265,-152.0373 177.2915,-150.8604 172.5199,-148.5595 172.1265,-152.0373"/>
</g>
<!-- NormalizeStep -->
<g id="node6" class="node">
<title>NormalizeStep</title>
<g id="a_node6"><a xlink:href="../api/iris_pipeline.normalize.NormalizeStep.html#iris_pipeline.normalize.NormalizeStep" xlink:title="NormalizeStep: Normalize a frame by dividing" target="_top">
<polygon fill="#ffffff" stroke="#000000" stroke-width=".5" points="280.5,-130 191.5,-130 191.5,-111 280.5,-111 280.5,-130"/>
<text text-anchor="middle" x="236" y="-118" font-family="Vera Sans, DejaVu Sans, Liberation Sans, Arial, Helvetica, sans" font-size="10.00" fill="#000000">NormalizeStep</text>
</a>
</g>
</g>
<!-- Step&#45;&gt;NormalizeStep -->
<g id="edge5" class="edge">
<title>Step&#45;&gt;NormalizeStep</title>
<path fill="none" stroke="#000000" stroke-width=".5" d="M95.366,-135.5679C119.8883,-132.9405 156.4639,-129.0217 186.168,-125.8391"/>
<polygon fill="#000000" stroke="#000000" stroke-width=".5" points="186.4655,-127.5674 191.2506,-125.2946 186.0926,-124.0873 186.4655,-127.5674"/>
</g>
<!-- ParseSubarrayMapStep -->
<g id="node7" class="node">
<title>ParseSubarrayMapStep</title>
<g id="a_node7"><a xlink:href="../api/iris_pipeline.parse_subarray_map.ParseSubarrayMapStep.html#iris_pipeline.parse_subarray_map.ParseSubarrayMapStep" xlink:title="ParseSubarrayMapStep: Parse a subarray map" target="_top">
<polygon fill="#ffffff" stroke="#000000" stroke-width=".5" points="300,-93 172,-93 172,-74 300,-74 300,-93"/>
<text text-anchor="middle" x="236" y="-81" font-family="Vera Sans, DejaVu Sans, Liberation Sans, Arial, Helvetica, sans" font-size="10.00" fill="#000000">ParseSubarrayMapStep</text>
</a>
</g>
</g>
<!-- Step&#45;&gt;ParseSubarrayMapStep -->
<g id="edge6" class="edge">
<title>Step&#45;&gt;ParseSubarrayMapStep</title>
<path fill="none" stroke="#000000" stroke-width=".5" d="M94.3931,-128.9989C115.3498,-121.5433 145.4417,-111.0342 172,-102.5 180.2243,-99.8572 189.0845,-97.1428 197.5132,-94.6225"/>
<polygon fill="#000000" stroke="#000000" stroke-width=".5" points="198.4026,-96.1838 202.696,-93.0807 197.4046,-92.8291 198.4026,-96.1838"/>
</g>
<!-- Pipeline -->
<g id="node8" class="node">
<title>Pipeline</title>
<g id="a_node8"><a xlink:title="A Pipeline is a way of combining a number of steps together.">
<polygon fill="#ffffff" stroke="#000000" stroke-width=".5" points="264,-56 208,-56 208,-37 264,-37 264,-56"/>
<text text-anchor="middle" x="236" y="-44" font-family="Vera Sans, DejaVu Sans, Liberation Sans, Arial, Helvetica, sans" font-size="10.00" fill="#000000">Pipeline</text>
</a>
</g>
</g>
<!-- Step&#45;&gt;Pipeline -->
<g id="edge7" class="edge">
<title>Step&#45;&gt;Pipeline</title>
<path fill="none" stroke="#000000" stroke-width=".5" d="M79.0831,-128.868C97.3075,-113.4753 135.258,-83.2621 172,-65.5 181.685,-60.818 192.7597,-57.0335 202.9434,-54.1112"/>
<polygon fill="#000000" stroke="#000000" stroke-width=".5" points="203.5116,-55.7697 207.8611,-52.7457 202.5752,-52.3973 203.5116,-55.7697"/>
</g>
<!-- SubtractImagesStep -->
<g id="node12" class="node">
<title>SubtractImagesStep</title>
<g id="a_node12"><a xlink:href="../api/iris_pipeline.SubtractImagesStep.html#iris_pipeline.SubtractImagesStep" xlink:title="SubtractImagesStep: &#160;Subtract two exposures from one" target="_top">
<polygon fill="#ffffff" stroke="#000000" stroke-width=".5" points="293.5,-19 178.5,-19 178.5,0 293.5,0 293.5,-19"/>
<text text-anchor="middle" x="236" y="-7" font-family="Vera Sans, DejaVu Sans, Liberation Sans, Arial, Helvetica, sans" font-size="10.00" fill="#000000">SubtractImagesStep</text>
</a>
</g>
</g>
<!-- Step&#45;&gt;SubtractImagesStep -->
<g id="edge11" class="edge">
<title>Step&#45;&gt;SubtractImagesStep</title>
<path fill="none" stroke="#000000" stroke-width=".5" d="M74.3236,-128.9623C88.9308,-107.6782 127.2168,-56.019 172,-28.5 176.7631,-25.5731 182.0034,-23.0746 187.3719,-20.947"/>
<polygon fill="#000000" stroke="#000000" stroke-width=".5" points="188.2567,-22.4847 192.3282,-19.0958 187.0319,-19.206 188.2567,-22.4847"/>
</g>
<!-- ProcessFlatfieldL2 -->
<g id="node9" class="node">
<title>ProcessFlatfieldL2</title>
<g id="a_node9"><a xlink:href="../api/iris_pipeline.pipeline.ProcessFlatfieldL2.html#iris_pipeline.pipeline.ProcessFlatfieldL2" xlink:title="ProcessFlatfieldL2: Remove dark and normalize exposure to create" target="_top">
<polygon fill="#ffffff" stroke="#000000" stroke-width=".5" points="457.5,-93 353.5,-93 353.5,-74 457.5,-74 457.5,-93"/>
<text text-anchor="middle" x="405.5" y="-81" font-family="Vera Sans, DejaVu Sans, Liberation Sans, Arial, Helvetica, sans" font-size="10.00" fill="#000000">ProcessFlatfieldL2</text>
</a>
</g>
</g>
<!-- Pipeline&#45;&gt;ProcessFlatfieldL2 -->
<g id="edge8" class="edge">
<title>Pipeline&#45;&gt;ProcessFlatfieldL2</title>
<path fill="none" stroke="#000000" stroke-width=".5" d="M264.3705,-52.693C289.4937,-58.1771 326.714,-66.3019 356.6238,-72.8309"/>
<polygon fill="#000000" stroke="#000000" stroke-width=".5" points="356.4794,-74.5905 361.7376,-73.9472 357.2259,-71.171 356.4794,-74.5905"/>
</g>
<!-- ProcessImagerL2Pipeline -->
<g id="node10" class="node">
<title>ProcessImagerL2Pipeline</title>
<g id="a_node10"><a xlink:href="../api/iris_pipeline.pipeline.ProcessImagerL2Pipeline.html#iris_pipeline.pipeline.ProcessImagerL2Pipeline" xlink:title="ProcessImagerL2Pipeline: Processes JWST imaging&#45;mode slope data from Level&#45;2a to" target="_top">
<polygon fill="#ffffff" stroke="#000000" stroke-width=".5" points="475,-56 336,-56 336,-37 475,-37 475,-56"/>
<text text-anchor="middle" x="405.5" y="-44" font-family="Vera Sans, DejaVu Sans, Liberation Sans, Arial, Helvetica, sans" font-size="10.00" fill="#000000">ProcessImagerL2Pipeline</text>
</a>
</g>
</g>
<!-- Pipeline&#45;&gt;ProcessImagerL2Pipeline -->
<g id="edge9" class="edge">
<title>Pipeline&#45;&gt;ProcessImagerL2Pipeline</title>
<path fill="none" stroke="#000000" stroke-width=".5" d="M264.3705,-46.5C282.5834,-46.5 307.1538,-46.5 330.6877,-46.5"/>
<polygon fill="#000000" stroke="#000000" stroke-width=".5" points="330.6912,-48.2501 335.6912,-46.5 330.6911,-44.7501 330.6912,-48.2501"/>
</g>
<!-- ROPPipeline -->
<g id="node11" class="node">
<title>ROPPipeline</title>
<g id="a_node11"><a xlink:href="../api/iris_pipeline.pipeline.ROPPipeline.html#iris_pipeline.pipeline.ROPPipeline" xlink:title="Detector1Pipeline for IRIS" target="_top">
<polygon fill="#ffffff" stroke="#000000" stroke-width=".5" points="443.5,-19 367.5,-19 367.5,0 443.5,0 443.5,-19"/>
<text text-anchor="middle" x="405.5" y="-7" font-family="Vera Sans, DejaVu Sans, Liberation Sans, Arial, Helvetica, sans" font-size="10.00" fill="#000000">ROPPipeline</text>
</a>
</g>
</g>
<!-- Pipeline&#45;&gt;ROPPipeline -->
<g id="edge10" class="edge">
<title>Pipeline&#45;&gt;ROPPipeline</title>
<path fill="none" stroke="#000000" stroke-width=".5" d="M264.3705,-40.307C291.0973,-34.4729 331.5148,-25.6502 362.2568,-18.9395"/>
<polygon fill="#000000" stroke="#000000" stroke-width=".5" points="362.9789,-20.5732 367.4906,-17.797 362.2324,-17.1537 362.9789,-20.5732"/>
</g>
<!-- UnsupportedPythonError -->
<g id="node13" class="node">
<title>UnsupportedPythonError</title>
<g id="a_node13"><a xlink:href="../api/iris_pipeline.UnsupportedPythonError.html#iris_pipeline.UnsupportedPythonError" xlink:title="UnsupportedPythonError" target="_top">
<polygon fill="#ffffff" stroke="#000000" stroke-width=".5" points="136,-185 0,-185 0,-166 136,-166 136,-185"/>
<text text-anchor="middle" x="68" y="-173" font-family="Vera Sans, DejaVu Sans, Liberation Sans, Arial, Helvetica, sans" font-size="10.00" fill="#000000">UnsupportedPythonError</text>
</a>
</g>
</g>
</g>
</svg>
