<?xml version="1.0" encoding="UTF-8" standalone="no"?>
<!DOCTYPE svg PUBLIC "-//W3C//DTD SVG 1.1//EN"
 "http://www.w3.org/Graphics/SVG/1.1/DTD/svg11.dtd">
<!-- Generated by graphviz version 2.40.1 (20161225.0304)
 -->
<!-- Title: inheritancedc92e44520 Pages: 1 -->
<svg width="329pt" height="101pt"
 viewBox="0.00 0.00 329.00 101.00" xmlns="http://www.w3.org/2000/svg" xmlns:xlink="http://www.w3.org/1999/xlink">
<g id="graph0" class="graph" transform="scale(1 1) rotate(0) translate(4 97)">
<title>inheritancedc92e44520</title>
<!-- Pipeline -->
<g id="node1" class="node">
<title>Pipeline</title>
<g id="a_node1"><a xlink:title="A Pipeline is a way of combining a number of steps together.">
<polygon fill="#ffffff" stroke="#000000" stroke-width=".5" points="146,-56 90,-56 90,-37 146,-37 146,-56"/>
<text text-anchor="middle" x="118" y="-44" font-family="Vera Sans, DejaVu Sans, Liberation Sans, Arial, Helvetica, sans" font-size="10.00" fill="#000000">Pipeline</text>
</a>
</g>
</g>
<!-- ProcessFlatfieldL2 -->
<g id="node3" class="node">
<title>ProcessFlatfieldL2</title>
<g id="a_node3"><a xlink:href="../../api/iris_pipeline.pipeline.ProcessFlatfieldL2.html#iris_pipeline.pipeline.ProcessFlatfieldL2" xlink:title="ProcessFlatfieldL2: Remove dark and normalize exposure to create" target="_top">
<polygon fill="#ffffff" stroke="#000000" stroke-width=".5" points="303.5,-93 199.5,-93 199.5,-74 303.5,-74 303.5,-93"/>
<text text-anchor="middle" x="251.5" y="-81" font-family="Vera Sans, DejaVu Sans, Liberation Sans, Arial, Helvetica, sans" font-size="10.00" fill="#000000">ProcessFlatfieldL2</text>
</a>
</g>
</g>
<!-- Pipeline&#45;&gt;ProcessFlatfieldL2 -->
<g id="edge2" class="edge">
<title>Pipeline&#45;&gt;ProcessFlatfieldL2</title>
<path fill="none" stroke="#000000" stroke-width=".5" d="M146.2935,-55.1326C157.4007,-58.4604 170.2742,-62.2421 182,-65.5 190.6128,-67.893 199.8546,-70.3579 208.6968,-72.6667"/>
<polygon fill="#000000" stroke="#000000" stroke-width=".5" points="208.2821,-74.3669 213.5616,-73.9318 209.163,-70.9796 208.2821,-74.3669"/>
</g>
<!-- ProcessImagerL2Pipeline -->
<g id="node4" class="node">
<title>ProcessImagerL2Pipeline</title>
<g id="a_node4"><a xlink:href="../../api/iris_pipeline.pipeline.ProcessImagerL2Pipeline.html#iris_pipeline.pipeline.ProcessImagerL2Pipeline" xlink:title="ProcessImagerL2Pipeline: Processes JWST imaging&#45;mode slope data from Level&#45;2a to" target="_top">
<polygon fill="#ffffff" stroke="#000000" stroke-width=".5" points="321,-56 182,-56 182,-37 321,-37 321,-56"/>
<text text-anchor="middle" x="251.5" y="-44" font-family="Vera Sans, DejaVu Sans, Liberation Sans, Arial, Helvetica, sans" font-size="10.00" fill="#000000">ProcessImagerL2Pipeline</text>
</a>
</g>
</g>
<!-- Pipeline&#45;&gt;ProcessImagerL2Pipeline -->
<g id="edge3" class="edge">
<title>Pipeline&#45;&gt;ProcessImagerL2Pipeline</title>
<path fill="none" stroke="#000000" stroke-width=".5" d="M146.3119,-46.5C155.3231,-46.5 165.7521,-46.5 176.4704,-46.5"/>
<polygon fill="#000000" stroke="#000000" stroke-width=".5" points="176.7504,-48.2501 181.7503,-46.5 176.7503,-44.7501 176.7504,-48.2501"/>
</g>
<!-- ROPPipeline -->
<g id="node5" class="node">
<title>ROPPipeline</title>
<g id="a_node5"><a xlink:href="../../api/iris_pipeline.pipeline.ROPPipeline.html#iris_pipeline.pipeline.ROPPipeline" xlink:title="Detector1Pipeline for IRIS" target="_top">
<polygon fill="#ffffff" stroke="#000000" stroke-width=".5" points="289.5,-19 213.5,-19 213.5,0 289.5,0 289.5,-19"/>
<text text-anchor="middle" x="251.5" y="-7" font-family="Vera Sans, DejaVu Sans, Liberation Sans, Arial, Helvetica, sans" font-size="10.00" fill="#000000">ROPPipeline</text>
</a>
</g>
</g>
<!-- Pipeline&#45;&gt;ROPPipeline -->
<g id="edge4" class="edge">
<title>Pipeline&#45;&gt;ROPPipeline</title>
<path fill="none" stroke="#000000" stroke-width=".5" d="M146.2935,-37.8674C157.4007,-34.5396 170.2742,-30.7579 182,-27.5 190.6128,-25.107 199.8546,-22.6421 208.6968,-20.3333"/>
<polygon fill="#000000" stroke="#000000" stroke-width=".5" points="209.163,-22.0204 213.5616,-19.0682 208.2821,-18.6331 209.163,-22.0204"/>
</g>
<!-- Step -->
<g id="node2" class="node">
<title>Step</title>
<g id="a_node2"><a xlink:title="Step">
<polygon fill="#ffffff" stroke="#000000" stroke-width=".5" points="54,-56 0,-56 0,-37 54,-37 54,-56"/>
<text text-anchor="middle" x="27" y="-44" font-family="Vera Sans, DejaVu Sans, Liberation Sans, Arial, Helvetica, sans" font-size="10.00" fill="#000000">Step</text>
</a>
</g>
</g>
<!-- Step&#45;&gt;Pipeline -->
<g id="edge1" class="edge">
<title>Step&#45;&gt;Pipeline</title>
<path fill="none" stroke="#000000" stroke-width=".5" d="M54.303,-46.5C63.8435,-46.5 74.6619,-46.5 84.64,-46.5"/>
<polygon fill="#000000" stroke="#000000" stroke-width=".5" points="84.77,-48.2501 89.77,-46.5 84.77,-44.7501 84.77,-48.2501"/>
</g>
</g>
</svg>
