<?xml version="1.0" encoding="UTF-8" standalone="no"?>
<!DOCTYPE svg PUBLIC "-//W3C//DTD SVG 1.1//EN"
 "http://www.w3.org/Graphics/SVG/1.1/DTD/svg11.dtd">
<!-- Generated by graphviz version 2.40.1 (20161225.0304)
 -->
<!-- Title: inheritance37706b73d4 Pages: 1 -->
<svg width="213pt" height="64pt"
 viewBox="0.00 0.00 213.00 64.00" xmlns="http://www.w3.org/2000/svg" xmlns:xlink="http://www.w3.org/1999/xlink">
<g id="graph0" class="graph" transform="scale(1 1) rotate(0) translate(4 60)">
<title>inheritance37706b73d4</title>
<!-- BackgroundStep -->
<g id="node1" class="node">
<title>BackgroundStep</title>
<g id="a_node1"><a xlink:href="../../api/iris_pipeline.BackgroundStep.html#iris_pipeline.BackgroundStep" xlink:title="BackgroundStep: &#160;Subtract background exposures from target exposures." target="_top">
<polygon fill="#ffffff" stroke="#000000" stroke-width=".5" points="195.5,-56 99.5,-56 99.5,-37 195.5,-37 195.5,-56"/>
<text text-anchor="middle" x="147.5" y="-44" font-family="Vera Sans, DejaVu Sans, Liberation Sans, Arial, Helvetica, sans" font-size="10.00" fill="#000000">BackgroundStep</text>
</a>
</g>
</g>
<!-- Step -->
<g id="node2" class="node">
<title>Step</title>
<g id="a_node2"><a xlink:title="Step">
<polygon fill="#ffffff" stroke="#000000" stroke-width=".5" points="54,-37 0,-37 0,-18 54,-18 54,-37"/>
<text text-anchor="middle" x="27" y="-25" font-family="Vera Sans, DejaVu Sans, Liberation Sans, Arial, Helvetica, sans" font-size="10.00" fill="#000000">Step</text>
</a>
</g>
</g>
<!-- Step&#45;&gt;BackgroundStep -->
<g id="edge1" class="edge">
<title>Step&#45;&gt;BackgroundStep</title>
<path fill="none" stroke="#000000" stroke-width=".5" d="M54.0426,-31.764C65.9082,-33.6349 80.2727,-35.8998 94.1433,-38.0869"/>
<polygon fill="#000000" stroke="#000000" stroke-width=".5" points="94.0141,-39.8381 99.2257,-38.8883 94.5593,-36.3808 94.0141,-39.8381"/>
</g>
<!-- SubtractImagesStep -->
<g id="node3" class="node">
<title>SubtractImagesStep</title>
<g id="a_node3"><a xlink:href="../../api/iris_pipeline.SubtractImagesStep.html#iris_pipeline.SubtractImagesStep" xlink:title="SubtractImagesStep: &#160;Subtract two exposures from one" target="_top">
<polygon fill="#ffffff" stroke="#000000" stroke-width=".5" points="205,-19 90,-19 90,0 205,0 205,-19"/>
<text text-anchor="middle" x="147.5" y="-7" font-family="Vera Sans, DejaVu Sans, Liberation Sans, Arial, Helvetica, sans" font-size="10.00" fill="#000000">SubtractImagesStep</text>
</a>
</g>
</g>
<!-- Step&#45;&gt;SubtractImagesStep -->
<g id="edge2" class="edge">
<title>Step&#45;&gt;SubtractImagesStep</title>
<path fill="none" stroke="#000000" stroke-width=".5" d="M54.0426,-23.4604C63.3093,-22.0762 74.1002,-20.4643 84.9897,-18.8376"/>
<polygon fill="#000000" stroke="#000000" stroke-width=".5" points="85.3082,-20.5596 89.9948,-18.09 84.7911,-17.098 85.3082,-20.5596"/>
</g>
</g>
</svg>
