<?xml version="1.0" encoding="UTF-8" standalone="no"?>
<!DOCTYPE svg PUBLIC "-//W3C//DTD SVG 1.1//EN"
 "http://www.w3.org/Graphics/SVG/1.1/DTD/svg11.dtd">
<!-- Generated by graphviz version 2.40.1 (20161225.0304)
 -->
<!-- Title: inheritanced584550fa4 Pages: 1 -->
<svg width="483pt" height="323pt"
 viewBox="0.00 0.00 483.00 323.00" xmlns="http://www.w3.org/2000/svg" xmlns:xlink="http://www.w3.org/1999/xlink">
<g id="graph0" class="graph" transform="scale(1 1) rotate(0) translate(4 319)">
<title>inheritanced584550fa4</title>
<!-- AssignWcsStep -->
<g id="node1" class="node">
<title>AssignWcsStep</title>
<g id="a_node1"><a xlink:href="../api/iris_pipeline.AssignWcsStep.html#iris_pipeline.AssignWcsStep" xlink:title="AssignWcsStep: Create a gWCS object and store it in ``Model.meta``." target="_top">
<polygon fill="#ffffff" stroke="#000000" stroke-width=".5" points="281.5,-315 190.5,-315 190.5,-296 281.5,-296 281.5,-315"/>
<text text-anchor="middle" x="236" y="-303" font-family="Vera Sans, DejaVu Sans, Liberation Sans, Arial, Helvetica, sans" font-size="10.00" fill="#000000">AssignWcsStep</text>
</a>
</g>
</g>
<!-- Step -->
<g id="node2" class="node">
<title>Step</title>
<g id="a_node2"><a xlink:title="Step">
<polygon fill="#ffffff" stroke="#000000" stroke-width=".5" points="95,-167 41,-167 41,-148 95,-148 95,-167"/>
<text text-anchor="middle" x="68" y="-155" font-family="Vera Sans, DejaVu Sans, Liberation Sans, Arial, Helvetica, sans" font-size="10.00" fill="#000000">Step</text>
</a>
</g>
</g>
<!-- Step&#45;&gt;AssignWcsStep -->
<g id="edge1" class="edge">
<title>Step&#45;&gt;AssignWcsStep</title>
<path fill="none" stroke="#000000" stroke-width=".5" d="M95.1827,-159.1032C108.9991,-161.2666 125.1218,-166.0606 136,-176.5 173.4196,-212.4103 134.611,-251.5578 172,-287.5 175.9499,-291.297 180.6354,-294.3048 185.648,-296.6855"/>
<polygon fill="#000000" stroke="#000000" stroke-width=".5" points="185.0469,-298.3319 190.3316,-298.7002 186.43,-295.1168 185.0469,-298.3319"/>
</g>
<!-- BackgroundStep -->
<g id="node3" class="node">
<title>BackgroundStep</title>
<g id="a_node3"><a xlink:href="../api/iris_pipeline.BackgroundStep.html#iris_pipeline.BackgroundStep" xlink:title="BackgroundStep: &#160;Subtract background exposures from target exposures." target="_top">
<polygon fill="#ffffff" stroke="#000000" stroke-width=".5" points="284,-278 188,-278 188,-259 284,-259 284,-278"/>
<text text-anchor="middle" x="236" y="-266" font-family="Vera Sans, DejaVu Sans, Liberation Sans, Arial, Helvetica, sans" font-size="10.00" fill="#000000">BackgroundStep</text>
</a>
</g>
</g>
<!-- Step&#45;&gt;BackgroundStep -->
<g id="edge2" class="edge">
<title>Step&#45;&gt;BackgroundStep</title>
<path fill="none" stroke="#000000" stroke-width=".5" d="M95.2844,-159.8522C108.7963,-162.2349 124.6106,-166.9992 136,-176.5 164.0854,-199.9284 143.9346,-227.0477 172,-250.5 175.3739,-253.3194 179.1609,-255.6982 183.1632,-257.7053"/>
<polygon fill="#000000" stroke="#000000" stroke-width=".5" points="182.6739,-259.4058 187.9487,-259.8947 184.1301,-256.2231 182.6739,-259.4058"/>
</g>
<!-- DQInitStep -->
<g id="node4" class="node">
<title>DQInitStep</title>
<g id="a_node4"><a xlink:href="../api/iris_pipeline.DQInitStep.html#iris_pipeline.DQInitStep" xlink:title="Initialize the Data Quality extension from the" target="_top">
<polygon fill="#ffffff" stroke="#000000" stroke-width=".5" points="270.5,-241 201.5,-241 201.5,-222 270.5,-222 270.5,-241"/>
<text text-anchor="middle" x="236" y="-229" font-family="Vera Sans, DejaVu Sans, Liberation Sans, Arial, Helvetica, sans" font-size="10.00" fill="#000000">DQInitStep</text>
</a>
</g>
</g>
<!-- Step&#45;&gt;DQInitStep -->
<g id="edge3" class="edge">
<title>Step&#45;&gt;DQInitStep</title>
<path fill="none" stroke="#000000" stroke-width=".5" d="M95.1339,-161.6738C108.1435,-164.5022 123.5627,-169.1159 136,-176.5 155.7287,-188.2131 152.2812,-201.7701 172,-213.5 179.3933,-217.898 187.9064,-221.2609 196.2606,-223.8185"/>
<polygon fill="#000000" stroke="#000000" stroke-width=".5" points="196.1412,-225.6053 201.4303,-225.309 197.1108,-222.2423 196.1412,-225.6053"/>
</g>
<!-- FlatFieldStep -->
<g id="node5" class="node">
<title>FlatFieldStep</title>
<g id="a_node5"><a xlink:href="../api/iris_pipeline.FlatFieldStep.html#iris_pipeline.FlatFieldStep" xlink:title="Flat&#45;field a science image using a flatfield reference image." target="_top">
<polygon fill="#ffffff" stroke="#000000" stroke-width=".5" points="275.5,-204 196.5,-204 196.5,-185 275.5,-185 275.5,-204"/>
<text text-anchor="middle" x="236" y="-192" font-family="Vera Sans, DejaVu Sans, Liberation Sans, Arial, Helvetica, sans" font-size="10.00" fill="#000000">FlatFieldStep</text>
</a>
</g>
</g>
<!-- Step&#45;&gt;FlatFieldStep -->
<g id="edge4" class="edge">
<title>Step&#45;&gt;FlatFieldStep</title>
<path fill="none" stroke="#000000" stroke-width=".5" d="M95.366,-163.527C121.2945,-169.2375 160.6986,-177.9158 191.207,-184.6349"/>
<polygon fill="#000000" stroke="#000000" stroke-width=".5" points="191.1488,-186.4139 196.4082,-185.7804 191.9017,-182.9958 191.1488,-186.4139"/>
</g>
<!-- MergeSubarraysStep -->
<g id="node6" class="node">
<title>MergeSubarraysStep</title>
<g id="a_node6"><a xlink:href="../api/iris_pipeline.merge_subarrays.MergeSubarraysStep.html#iris_pipeline.merge_subarrays.MergeSubarraysStep" xlink:title="ParseSubarrayMapStep: Parse a subarray map" target="_top">
<polygon fill="#ffffff" stroke="#000000" stroke-width=".5" points="294.5,-167 177.5,-167 177.5,-148 294.5,-148 294.5,-167"/>
<text text-anchor="middle" x="236" y="-155" font-family="Vera Sans, DejaVu Sans, Liberation Sans, Arial, Helvetica, sans" font-size="10.00" fill="#000000">MergeSubarraysStep</text>
</a>
</g>
</g>
<!-- Step&#45;&gt;MergeSubarraysStep -->
<g id="edge5" class="edge">
<title>Step&#45;&gt;MergeSubarraysStep</title>
<path fill="none" stroke="#000000" stroke-width=".5" d="M95.366,-157.5C116.1117,-157.5 145.4842,-157.5 172.0246,-157.5"/>
<polygon fill="#000000" stroke="#000000" stroke-width=".5" points="172.2916,-159.2501 177.2915,-157.5 172.2915,-155.7501 172.2916,-159.2501"/>
</g>
<!-- NormalizeStep -->
<g id="node7" class="node">
<title>NormalizeStep</title>
<g id="a_node7"><a xlink:href="../api/iris_pipeline.normalize.NormalizeStep.html#iris_pipeline.normalize.NormalizeStep" xlink:title="NormalizeStep: Normalize a frame by dividing" target="_top">
<polygon fill="#ffffff" stroke="#000000" stroke-width=".5" points="280.5,-130 191.5,-130 191.5,-111 280.5,-111 280.5,-130"/>
<text text-anchor="middle" x="236" y="-118" font-family="Vera Sans, DejaVu Sans, Liberation Sans, Arial, Helvetica, sans" font-size="10.00" fill="#000000">NormalizeStep</text>
</a>
</g>
</g>
<!-- Step&#45;&gt;NormalizeStep -->
<g id="edge6" class="edge">
<title>Step&#45;&gt;NormalizeStep</title>
<path fill="none" stroke="#000000" stroke-width=".5" d="M95.366,-151.473C120.2398,-145.9948 157.5151,-137.7854 187.4413,-131.1945"/>
<polygon fill="#000000" stroke="#000000" stroke-width=".5" points="188.0509,-132.8522 192.5575,-130.0677 187.2981,-129.4341 188.0509,-132.8522"/>
</g>
<!-- ParseSubarrayMapStep -->
<g id="node8" class="node">
<title>ParseSubarrayMapStep</title>
<g id="a_node8"><a xlink:href="../api/iris_pipeline.parse_subarray_map.ParseSubarrayMapStep.html#iris_pipeline.parse_subarray_map.ParseSubarrayMapStep" xlink:title="ParseSubarrayMapStep: Parse a subarray map" target="_top">
<polygon fill="#ffffff" stroke="#000000" stroke-width=".5" points="300,-93 172,-93 172,-74 300,-74 300,-93"/>
<text text-anchor="middle" x="236" y="-81" font-family="Vera Sans, DejaVu Sans, Liberation Sans, Arial, Helvetica, sans" font-size="10.00" fill="#000000">ParseSubarrayMapStep</text>
</a>
</g>
</g>
<!-- Step&#45;&gt;ParseSubarrayMapStep -->
<g id="edge7" class="edge">
<title>Step&#45;&gt;ParseSubarrayMapStep</title>
<path fill="none" stroke="#000000" stroke-width=".5" d="M83.7378,-147.9092C103.7076,-136.0401 139.4741,-115.7758 172,-102.5 179.0623,-99.6174 186.7232,-96.9613 194.2082,-94.6056"/>
<polygon fill="#000000" stroke="#000000" stroke-width=".5" points="195.0878,-96.166 199.3525,-93.0236 194.059,-92.8206 195.0878,-96.166"/>
</g>
<!-- Pipeline -->
<g id="node9" class="node">
<title>Pipeline</title>
<g id="a_node9"><a xlink:title="A Pipeline is a way of combining a number of steps together.">
<polygon fill="#ffffff" stroke="#000000" stroke-width=".5" points="264,-56 208,-56 208,-37 264,-37 264,-56"/>
<text text-anchor="middle" x="236" y="-44" font-family="Vera Sans, DejaVu Sans, Liberation Sans, Arial, Helvetica, sans" font-size="10.00" fill="#000000">Pipeline</text>
</a>
</g>
</g>
<!-- Step&#45;&gt;Pipeline -->
<g id="edge8" class="edge">
<title>Step&#45;&gt;Pipeline</title>
<path fill="none" stroke="#000000" stroke-width=".5" d="M76.1492,-147.9166C92.4657,-129.3213 131.1035,-88.1839 172,-65.5 181.4943,-60.2338 192.6093,-56.2777 202.8878,-53.3779"/>
<polygon fill="#000000" stroke="#000000" stroke-width=".5" points="203.4839,-55.0297 207.8557,-52.0381 202.5725,-51.6505 203.4839,-55.0297"/>
</g>
<!-- SubtractImagesStep -->
<g id="node13" class="node">
<title>SubtractImagesStep</title>
<g id="a_node13"><a xlink:href="../api/iris_pipeline.SubtractImagesStep.html#iris_pipeline.SubtractImagesStep" xlink:title="SubtractImagesStep: &#160;Subtract two exposures from one" target="_top">
<polygon fill="#ffffff" stroke="#000000" stroke-width=".5" points="293.5,-19 178.5,-19 178.5,0 293.5,0 293.5,-19"/>
<text text-anchor="middle" x="236" y="-7" font-family="Vera Sans, DejaVu Sans, Liberation Sans, Arial, Helvetica, sans" font-size="10.00" fill="#000000">SubtractImagesStep</text>
</a>
</g>
</g>
<!-- Step&#45;&gt;SubtractImagesStep -->
<g id="edge12" class="edge">
<title>Step&#45;&gt;SubtractImagesStep</title>
<path fill="none" stroke="#000000" stroke-width=".5" d="M73.0955,-147.7388C86.1542,-123.6892 123.2497,-61.1719 172,-28.5 176.4229,-25.5358 181.3193,-23.0236 186.3768,-20.8967"/>
<polygon fill="#000000" stroke="#000000" stroke-width=".5" points="187.0491,-22.5128 191.0578,-19.0498 185.7644,-19.2571 187.0491,-22.5128"/>
</g>
<!-- ProcessFlatfieldL2 -->
<g id="node10" class="node">
<title>ProcessFlatfieldL2</title>
<g id="a_node10"><a xlink:href="../api/iris_pipeline.pipeline.ProcessFlatfieldL2.html#iris_pipeline.pipeline.ProcessFlatfieldL2" xlink:title="ProcessFlatfieldL2: Remove dark and normalize exposure to create" target="_top">
<polygon fill="#ffffff" stroke="#000000" stroke-width=".5" points="457.5,-93 353.5,-93 353.5,-74 457.5,-74 457.5,-93"/>
<text text-anchor="middle" x="405.5" y="-81" font-family="Vera Sans, DejaVu Sans, Liberation Sans, Arial, Helvetica, sans" font-size="10.00" fill="#000000">ProcessFlatfieldL2</text>
</a>
</g>
</g>
<!-- Pipeline&#45;&gt;ProcessFlatfieldL2 -->
<g id="edge9" class="edge">
<title>Pipeline&#45;&gt;ProcessFlatfieldL2</title>
<path fill="none" stroke="#000000" stroke-width=".5" d="M264.3705,-52.693C289.4937,-58.1771 326.714,-66.3019 356.6238,-72.8309"/>
<polygon fill="#000000" stroke="#000000" stroke-width=".5" points="356.4794,-74.5905 361.7376,-73.9472 357.2259,-71.171 356.4794,-74.5905"/>
</g>
<!-- ProcessImagerL2Pipeline -->
<g id="node11" class="node">
<title>ProcessImagerL2Pipeline</title>
<g id="a_node11"><a xlink:href="../api/iris_pipeline.pipeline.ProcessImagerL2Pipeline.html#iris_pipeline.pipeline.ProcessImagerL2Pipeline" xlink:title="ProcessImagerL2Pipeline: Processes JWST imaging&#45;mode slope data from Level&#45;2a to" target="_top">
<polygon fill="#ffffff" stroke="#000000" stroke-width=".5" points="475,-56 336,-56 336,-37 475,-37 475,-56"/>
<text text-anchor="middle" x="405.5" y="-44" font-family="Vera Sans, DejaVu Sans, Liberation Sans, Arial, Helvetica, sans" font-size="10.00" fill="#000000">ProcessImagerL2Pipeline</text>
</a>
</g>
</g>
<!-- Pipeline&#45;&gt;ProcessImagerL2Pipeline -->
<g id="edge10" class="edge">
<title>Pipeline&#45;&gt;ProcessImagerL2Pipeline</title>
<path fill="none" stroke="#000000" stroke-width=".5" d="M264.3705,-46.5C282.5834,-46.5 307.1538,-46.5 330.6877,-46.5"/>
<polygon fill="#000000" stroke="#000000" stroke-width=".5" points="330.6912,-48.2501 335.6912,-46.5 330.6911,-44.7501 330.6912,-48.2501"/>
</g>
<!-- ROPPipeline -->
<g id="node12" class="node">
<title>ROPPipeline</title>
<g id="a_node12"><a xlink:href="../api/iris_pipeline.pipeline.ROPPipeline.html#iris_pipeline.pipeline.ROPPipeline" xlink:title="Detector1Pipeline for IRIS" target="_top">
<polygon fill="#ffffff" stroke="#000000" stroke-width=".5" points="443.5,-19 367.5,-19 367.5,0 443.5,0 443.5,-19"/>
<text text-anchor="middle" x="405.5" y="-7" font-family="Vera Sans, DejaVu Sans, Liberation Sans, Arial, Helvetica, sans" font-size="10.00" fill="#000000">ROPPipeline</text>
</a>
</g>
</g>
<!-- Pipeline&#45;&gt;ROPPipeline -->
<g id="edge11" class="edge">
<title>Pipeline&#45;&gt;ROPPipeline</title>
<path fill="none" stroke="#000000" stroke-width=".5" d="M264.3705,-40.307C291.0973,-34.4729 331.5148,-25.6502 362.2568,-18.9395"/>
<polygon fill="#000000" stroke="#000000" stroke-width=".5" points="362.9789,-20.5732 367.4906,-17.797 362.2324,-17.1537 362.9789,-20.5732"/>
</g>
<!-- UnsupportedPythonError -->
<g id="node14" class="node">
<title>UnsupportedPythonError</title>
<g id="a_node14"><a xlink:href="../api/iris_pipeline.UnsupportedPythonError.html#iris_pipeline.UnsupportedPythonError" xlink:title="UnsupportedPythonError" target="_top">
<polygon fill="#ffffff" stroke="#000000" stroke-width=".5" points="136,-204 0,-204 0,-185 136,-185 136,-204"/>
<text text-anchor="middle" x="68" y="-192" font-family="Vera Sans, DejaVu Sans, Liberation Sans, Arial, Helvetica, sans" font-size="10.00" fill="#000000">UnsupportedPythonError</text>
</a>
</g>
</g>
</g>
</svg>
