<?xml version="1.0" encoding="UTF-8" standalone="no"?>
<!DOCTYPE svg PUBLIC "-//W3C//DTD SVG 1.1//EN"
 "http://www.w3.org/Graphics/SVG/1.1/DTD/svg11.dtd">
<!-- Generated by graphviz version 2.43.0 (0)
 -->
<!-- Title: inheritancedc92e44520 Pages: 1 -->
<svg width="329pt" height="101pt"
 viewBox="0.00 0.00 329.00 101.00" xmlns="http://www.w3.org/2000/svg" xmlns:xlink="http://www.w3.org/1999/xlink">
<g id="graph0" class="graph" transform="scale(1 1) rotate(0) translate(4 97)">
<title>inheritancedc92e44520</title>
<!-- Pipeline -->
<g id="node1" class="node">
<title>Pipeline</title>
<g id="a_node1"><a xlink:title="A Pipeline is a way of combining a number of steps together.">
<polygon fill="white" stroke="black" stroke-width="0.5" points="146,-56 90,-56 90,-37 146,-37 146,-56"/>
<text text-anchor="middle" x="118" y="-44" font-family="Vera Sans, DejaVu Sans, Liberation Sans, Arial, Helvetica, sans" font-size="10.00">Pipeline</text>
</a>
</g>
</g>
<!-- ProcessFlatfieldL2 -->
<g id="node3" class="node">
<title>ProcessFlatfieldL2</title>
<g id="a_node3"><a xlink:href="../../api/iris_pipeline.pipeline.ProcessFlatfieldL2.html#iris_pipeline.pipeline.ProcessFlatfieldL2" xlink:title="ProcessFlatfieldL2: Remove dark and normalize exposure to create" target="_top">
<polygon fill="white" stroke="black" stroke-width="0.5" points="304,-93 199,-93 199,-74 304,-74 304,-93"/>
<text text-anchor="middle" x="251.5" y="-81" font-family="Vera Sans, DejaVu Sans, Liberation Sans, Arial, Helvetica, sans" font-size="10.00">ProcessFlatfieldL2</text>
</a>
</g>
</g>
<!-- Pipeline&#45;&gt;ProcessFlatfieldL2 -->
<g id="edge2" class="edge">
<title>Pipeline&#45;&gt;ProcessFlatfieldL2</title>
<path fill="none" stroke="black" stroke-width="0.5" d="M146.23,-54.94C157.3,-58.32 170.24,-62.18 182,-65.5 190.33,-67.85 199.26,-70.27 207.83,-72.54"/>
<polygon fill="black" stroke="black" stroke-width="0.5" points="207.82,-74.35 213.11,-73.93 208.72,-70.97 207.82,-74.35"/>
</g>
<!-- ProcessImagerL2Pipeline -->
<g id="node4" class="node">
<title>ProcessImagerL2Pipeline</title>
<g id="a_node4"><a xlink:href="../../api/iris_pipeline.pipeline.ProcessImagerL2Pipeline.html#iris_pipeline.pipeline.ProcessImagerL2Pipeline" xlink:title="ProcessImagerL2Pipeline: Processes JWST imaging&#45;mode slope data from Level&#45;2a to" target="_top">
<polygon fill="white" stroke="black" stroke-width="0.5" points="321,-56 182,-56 182,-37 321,-37 321,-56"/>
<text text-anchor="middle" x="251.5" y="-44" font-family="Vera Sans, DejaVu Sans, Liberation Sans, Arial, Helvetica, sans" font-size="10.00">ProcessImagerL2Pipeline</text>
</a>
</g>
</g>
<!-- Pipeline&#45;&gt;ProcessImagerL2Pipeline -->
<g id="edge3" class="edge">
<title>Pipeline&#45;&gt;ProcessImagerL2Pipeline</title>
<path fill="none" stroke="black" stroke-width="0.5" d="M146.25,-46.5C155.31,-46.5 165.89,-46.5 176.76,-46.5"/>
<polygon fill="black" stroke="black" stroke-width="0.5" points="176.78,-48.25 181.78,-46.5 176.78,-44.75 176.78,-48.25"/>
</g>
<!-- ROPPipeline -->
<g id="node5" class="node">
<title>ROPPipeline</title>
<g id="a_node5"><a xlink:href="../../api/iris_pipeline.pipeline.ROPPipeline.html#iris_pipeline.pipeline.ROPPipeline" xlink:title="Detector1Pipeline for IRIS" target="_top">
<polygon fill="white" stroke="black" stroke-width="0.5" points="289.5,-19 213.5,-19 213.5,0 289.5,0 289.5,-19"/>
<text text-anchor="middle" x="251.5" y="-7" font-family="Vera Sans, DejaVu Sans, Liberation Sans, Arial, Helvetica, sans" font-size="10.00">ROPPipeline</text>
</a>
</g>
</g>
<!-- Pipeline&#45;&gt;ROPPipeline -->
<g id="edge4" class="edge">
<title>Pipeline&#45;&gt;ROPPipeline</title>
<path fill="none" stroke="black" stroke-width="0.5" d="M146.23,-38.06C157.3,-34.68 170.24,-30.82 182,-27.5 190.59,-25.08 199.81,-22.58 208.62,-20.25"/>
<polygon fill="black" stroke="black" stroke-width="0.5" points="209.07,-21.94 213.46,-18.97 208.18,-18.56 209.07,-21.94"/>
</g>
<!-- Step -->
<g id="node2" class="node">
<title>Step</title>
<g id="a_node2"><a xlink:title="Step">
<polygon fill="white" stroke="black" stroke-width="0.5" points="54,-56 0,-56 0,-37 54,-37 54,-56"/>
<text text-anchor="middle" x="27" y="-44" font-family="Vera Sans, DejaVu Sans, Liberation Sans, Arial, Helvetica, sans" font-size="10.00">Step</text>
</a>
</g>
</g>
<!-- Step&#45;&gt;Pipeline -->
<g id="edge1" class="edge">
<title>Step&#45;&gt;Pipeline</title>
<path fill="none" stroke="black" stroke-width="0.5" d="M54.22,-46.5C63.74,-46.5 74.61,-46.5 84.6,-46.5"/>
<polygon fill="black" stroke="black" stroke-width="0.5" points="84.73,-48.25 89.73,-46.5 84.73,-44.75 84.73,-48.25"/>
</g>
</g>
</svg>
