<?xml version="1.0" encoding="UTF-8" standalone="no"?>
<!DOCTYPE svg PUBLIC "-//W3C//DTD SVG 1.1//EN"
 "http://www.w3.org/Graphics/SVG/1.1/DTD/svg11.dtd">
<!-- Generated by graphviz version 2.43.0 (0)
 -->
<!-- Title: inheritance37706b73d4 Pages: 1 -->
<svg width="213pt" height="64pt"
 viewBox="0.00 0.00 213.00 64.00" xmlns="http://www.w3.org/2000/svg" xmlns:xlink="http://www.w3.org/1999/xlink">
<g id="graph0" class="graph" transform="scale(1 1) rotate(0) translate(4 60)">
<title>inheritance37706b73d4</title>
<!-- BackgroundStep -->
<g id="node1" class="node">
<title>BackgroundStep</title>
<g id="a_node1"><a xlink:href="../../api/iris_pipeline.background.BackgroundStep.html#iris_pipeline.background.BackgroundStep" xlink:title="BackgroundStep: &#160;Subtract background exposures from target exposures." target="_top">
<polygon fill="white" stroke="black" stroke-width="0.5" points="195.5,-56 99.5,-56 99.5,-37 195.5,-37 195.5,-56"/>
<text text-anchor="middle" x="147.5" y="-44" font-family="Vera Sans, DejaVu Sans, Liberation Sans, Arial, Helvetica, sans" font-size="10.00">BackgroundStep</text>
</a>
</g>
</g>
<!-- Step -->
<g id="node2" class="node">
<title>Step</title>
<g id="a_node2"><a xlink:title="Step">
<polygon fill="white" stroke="black" stroke-width="0.5" points="54,-37 0,-37 0,-18 54,-18 54,-37"/>
<text text-anchor="middle" x="27" y="-25" font-family="Vera Sans, DejaVu Sans, Liberation Sans, Arial, Helvetica, sans" font-size="10.00">Step</text>
</a>
</g>
</g>
<!-- Step&#45;&gt;BackgroundStep -->
<g id="edge1" class="edge">
<title>Step&#45;&gt;BackgroundStep</title>
<path fill="none" stroke="black" stroke-width="0.5" d="M54.01,-31.67C65.78,-33.56 80.14,-35.86 94,-38.08"/>
<polygon fill="black" stroke="black" stroke-width="0.5" points="93.86,-39.83 99.08,-38.9 94.42,-36.38 93.86,-39.83"/>
</g>
<!-- SubtractImagesStep -->
<g id="node3" class="node">
<title>SubtractImagesStep</title>
<g id="a_node3"><a xlink:href="../../api/iris_pipeline.background.SubtractImagesStep.html#iris_pipeline.background.SubtractImagesStep" xlink:title="SubtractImagesStep: &#160;Subtract two exposures from one" target="_top">
<polygon fill="white" stroke="black" stroke-width="0.5" points="205,-19 90,-19 90,0 205,0 205,-19"/>
<text text-anchor="middle" x="147.5" y="-7" font-family="Vera Sans, DejaVu Sans, Liberation Sans, Arial, Helvetica, sans" font-size="10.00">SubtractImagesStep</text>
</a>
</g>
</g>
<!-- Step&#45;&gt;SubtractImagesStep -->
<g id="edge2" class="edge">
<title>Step&#45;&gt;SubtractImagesStep</title>
<path fill="none" stroke="black" stroke-width="0.5" d="M54.01,-23.55C63.22,-22.15 74.03,-20.51 84.93,-18.85"/>
<polygon fill="black" stroke="black" stroke-width="0.5" points="85.27,-20.57 89.95,-18.09 84.74,-17.11 85.27,-20.57"/>
</g>
</g>
</svg>
