<?xml version="1.0" encoding="UTF-8" standalone="no"?>
<!DOCTYPE svg PUBLIC "-//W3C//DTD SVG 1.1//EN"
 "http://www.w3.org/Graphics/SVG/1.1/DTD/svg11.dtd">
<!-- Generated by graphviz version 2.43.0 (0)
 -->
<!-- Title: inheritanced584550fa4 Pages: 1 -->
<svg width="484pt" height="323pt"
 viewBox="0.00 0.00 484.00 323.00" xmlns="http://www.w3.org/2000/svg" xmlns:xlink="http://www.w3.org/1999/xlink">
<g id="graph0" class="graph" transform="scale(1 1) rotate(0) translate(4 319)">
<title>inheritanced584550fa4</title>
<!-- AssignWcsStep -->
<g id="node1" class="node">
<title>AssignWcsStep</title>
<g id="a_node1"><a xlink:href="../api/iris_pipeline.AssignWcsStep.html#iris_pipeline.AssignWcsStep" xlink:title="AssignWcsStep: Create a gWCS object and store it in ``Model.meta``." target="_top">
<polygon fill="white" stroke="black" stroke-width="0.5" points="282,-315 191,-315 191,-296 282,-296 282,-315"/>
<text text-anchor="middle" x="236.5" y="-303" font-family="Vera Sans, DejaVu Sans, Liberation Sans, Arial, Helvetica, sans" font-size="10.00">AssignWcsStep</text>
</a>
</g>
</g>
<!-- Step -->
<g id="node2" class="node">
<title>Step</title>
<g id="a_node2"><a xlink:title="Step">
<polygon fill="white" stroke="black" stroke-width="0.5" points="95,-167 41,-167 41,-148 95,-148 95,-167"/>
<text text-anchor="middle" x="68" y="-155" font-family="Vera Sans, DejaVu Sans, Liberation Sans, Arial, Helvetica, sans" font-size="10.00">Step</text>
</a>
</g>
</g>
<!-- Step&#45;&gt;AssignWcsStep -->
<g id="edge1" class="edge">
<title>Step&#45;&gt;AssignWcsStep</title>
<path fill="none" stroke="black" stroke-width="0.5" d="M95.13,-159.1C108.89,-161.24 125.12,-166.01 136,-176.5 173.35,-212.48 134.65,-251.52 172,-287.5 176.04,-291.4 180.87,-294.46 186.02,-296.87"/>
<polygon fill="black" stroke="black" stroke-width="0.5" points="185.55,-298.57 190.83,-298.9 186.91,-295.34 185.55,-298.57"/>
</g>
<!-- BackgroundStep -->
<g id="node3" class="node">
<title>BackgroundStep</title>
<g id="a_node3"><a xlink:href="../api/iris_pipeline.BackgroundStep.html#iris_pipeline.BackgroundStep" xlink:title="BackgroundStep: &#160;Subtract background exposures from target exposures." target="_top">
<polygon fill="white" stroke="black" stroke-width="0.5" points="284.5,-278 188.5,-278 188.5,-259 284.5,-259 284.5,-278"/>
<text text-anchor="middle" x="236.5" y="-266" font-family="Vera Sans, DejaVu Sans, Liberation Sans, Arial, Helvetica, sans" font-size="10.00">BackgroundStep</text>
</a>
</g>
</g>
<!-- Step&#45;&gt;BackgroundStep -->
<g id="edge2" class="edge">
<title>Step&#45;&gt;BackgroundStep</title>
<path fill="none" stroke="black" stroke-width="0.5" d="M95.23,-159.82C108.69,-162.19 124.6,-166.95 136,-176.5 164.04,-199.98 143.96,-227.02 172,-250.5 175.55,-253.47 179.56,-255.95 183.79,-258.03"/>
<polygon fill="black" stroke="black" stroke-width="0.5" points="183.19,-259.67 188.47,-260.12 184.62,-256.48 183.19,-259.67"/>
</g>
<!-- DQInitStep -->
<g id="node4" class="node">
<title>DQInitStep</title>
<g id="a_node4"><a xlink:href="../api/iris_pipeline.DQInitStep.html#iris_pipeline.DQInitStep" xlink:title="Initialize the Data Quality extension from the" target="_top">
<polygon fill="white" stroke="black" stroke-width="0.5" points="271,-241 202,-241 202,-222 271,-222 271,-241"/>
<text text-anchor="middle" x="236.5" y="-229" font-family="Vera Sans, DejaVu Sans, Liberation Sans, Arial, Helvetica, sans" font-size="10.00">DQInitStep</text>
</a>
</g>
</g>
<!-- Step&#45;&gt;DQInitStep -->
<g id="edge3" class="edge">
<title>Step&#45;&gt;DQInitStep</title>
<path fill="none" stroke="black" stroke-width="0.5" d="M95.09,-161.6C108.04,-164.43 123.54,-169.07 136,-176.5 155.71,-188.25 152.29,-201.75 172,-213.5 179.5,-217.97 188.16,-221.37 196.62,-223.95"/>
<polygon fill="black" stroke="black" stroke-width="0.5" points="196.57,-225.76 201.86,-225.45 197.53,-222.39 196.57,-225.76"/>
</g>
<!-- FlatFieldStep -->
<g id="node5" class="node">
<title>FlatFieldStep</title>
<g id="a_node5"><a xlink:href="../api/iris_pipeline.FlatFieldStep.html#iris_pipeline.FlatFieldStep" xlink:title="Flat&#45;field a science image using a flatfield reference image." target="_top">
<polygon fill="white" stroke="black" stroke-width="0.5" points="276.5,-204 196.5,-204 196.5,-185 276.5,-185 276.5,-204"/>
<text text-anchor="middle" x="236.5" y="-192" font-family="Vera Sans, DejaVu Sans, Liberation Sans, Arial, Helvetica, sans" font-size="10.00">FlatFieldStep</text>
</a>
</g>
</g>
<!-- Step&#45;&gt;FlatFieldStep -->
<g id="edge4" class="edge">
<title>Step&#45;&gt;FlatFieldStep</title>
<path fill="none" stroke="black" stroke-width="0.5" d="M95.02,-163.28C120.69,-168.99 160.45,-177.82 191.13,-184.64"/>
<polygon fill="black" stroke="black" stroke-width="0.5" points="191.1,-186.43 196.36,-185.8 191.86,-183.01 191.1,-186.43"/>
</g>
<!-- MergeSubarraysStep -->
<g id="node6" class="node">
<title>MergeSubarraysStep</title>
<g id="a_node6"><a xlink:href="../api/iris_pipeline.merge_subarrays.MergeSubarraysStep.html#iris_pipeline.merge_subarrays.MergeSubarraysStep" xlink:title="ParseSubarrayMapStep: Parse a subarray map" target="_top">
<polygon fill="white" stroke="black" stroke-width="0.5" points="295.5,-167 177.5,-167 177.5,-148 295.5,-148 295.5,-167"/>
<text text-anchor="middle" x="236.5" y="-155" font-family="Vera Sans, DejaVu Sans, Liberation Sans, Arial, Helvetica, sans" font-size="10.00">MergeSubarraysStep</text>
</a>
</g>
</g>
<!-- Step&#45;&gt;MergeSubarraysStep -->
<g id="edge5" class="edge">
<title>Step&#45;&gt;MergeSubarraysStep</title>
<path fill="none" stroke="black" stroke-width="0.5" d="M95.02,-157.5C115.59,-157.5 145.22,-157.5 171.96,-157.5"/>
<polygon fill="black" stroke="black" stroke-width="0.5" points="172.27,-159.25 177.27,-157.5 172.27,-155.75 172.27,-159.25"/>
</g>
<!-- NormalizeStep -->
<g id="node7" class="node">
<title>NormalizeStep</title>
<g id="a_node7"><a xlink:href="../api/iris_pipeline.normalize.NormalizeStep.html#iris_pipeline.normalize.NormalizeStep" xlink:title="NormalizeStep: Normalize a frame by dividing" target="_top">
<polygon fill="white" stroke="black" stroke-width="0.5" points="281,-130 192,-130 192,-111 281,-111 281,-130"/>
<text text-anchor="middle" x="236.5" y="-118" font-family="Vera Sans, DejaVu Sans, Liberation Sans, Arial, Helvetica, sans" font-size="10.00">NormalizeStep</text>
</a>
</g>
</g>
<!-- Step&#45;&gt;NormalizeStep -->
<g id="edge6" class="edge">
<title>Step&#45;&gt;NormalizeStep</title>
<path fill="none" stroke="black" stroke-width="0.5" d="M95.02,-151.72C119.66,-146.24 157.26,-137.89 187.37,-131.2"/>
<polygon fill="black" stroke="black" stroke-width="0.5" points="188.01,-132.85 192.51,-130.05 187.25,-129.43 188.01,-132.85"/>
</g>
<!-- ParseSubarrayMapStep -->
<g id="node8" class="node">
<title>ParseSubarrayMapStep</title>
<g id="a_node8"><a xlink:href="../api/iris_pipeline.parse_subarray_map.ParseSubarrayMapStep.html#iris_pipeline.parse_subarray_map.ParseSubarrayMapStep" xlink:title="ParseSubarrayMapStep: Parse a subarray map" target="_top">
<polygon fill="white" stroke="black" stroke-width="0.5" points="301,-93 172,-93 172,-74 301,-74 301,-93"/>
<text text-anchor="middle" x="236.5" y="-81" font-family="Vera Sans, DejaVu Sans, Liberation Sans, Arial, Helvetica, sans" font-size="10.00">ParseSubarrayMapStep</text>
</a>
</g>
</g>
<!-- Step&#45;&gt;ParseSubarrayMapStep -->
<g id="edge7" class="edge">
<title>Step&#45;&gt;ParseSubarrayMapStep</title>
<path fill="none" stroke="black" stroke-width="0.5" d="M84.58,-147.91C104.35,-136.04 139.76,-115.78 172,-102.5 179,-99.62 186.6,-96.96 194.03,-94.6"/>
<polygon fill="black" stroke="black" stroke-width="0.5" points="194.87,-96.17 199.13,-93.02 193.84,-92.83 194.87,-96.17"/>
</g>
<!-- Pipeline -->
<g id="node9" class="node">
<title>Pipeline</title>
<g id="a_node9"><a xlink:title="A Pipeline is a way of combining a number of steps together.">
<polygon fill="white" stroke="black" stroke-width="0.5" points="264.5,-56 208.5,-56 208.5,-37 264.5,-37 264.5,-56"/>
<text text-anchor="middle" x="236.5" y="-44" font-family="Vera Sans, DejaVu Sans, Liberation Sans, Arial, Helvetica, sans" font-size="10.00">Pipeline</text>
</a>
</g>
</g>
<!-- Step&#45;&gt;Pipeline -->
<g id="edge8" class="edge">
<title>Step&#45;&gt;Pipeline</title>
<path fill="none" stroke="black" stroke-width="0.5" d="M77.05,-147.92C93.18,-129.33 131.4,-88.2 172,-65.5 181.58,-60.14 192.84,-56.14 203.19,-53.23"/>
<polygon fill="black" stroke="black" stroke-width="0.5" points="203.82,-54.87 208.19,-51.88 202.91,-51.49 203.82,-54.87"/>
</g>
<!-- SubtractImagesStep -->
<g id="node13" class="node">
<title>SubtractImagesStep</title>
<g id="a_node13"><a xlink:href="../api/iris_pipeline.SubtractImagesStep.html#iris_pipeline.SubtractImagesStep" xlink:title="SubtractImagesStep: &#160;Subtract two exposures from one" target="_top">
<polygon fill="white" stroke="black" stroke-width="0.5" points="294,-19 179,-19 179,0 294,0 294,-19"/>
<text text-anchor="middle" x="236.5" y="-7" font-family="Vera Sans, DejaVu Sans, Liberation Sans, Arial, Helvetica, sans" font-size="10.00">SubtractImagesStep</text>
</a>
</g>
</g>
<!-- Step&#45;&gt;SubtractImagesStep -->
<g id="edge12" class="edge">
<title>Step&#45;&gt;SubtractImagesStep</title>
<path fill="none" stroke="black" stroke-width="0.5" d="M74.03,-147.74C86.91,-123.71 123.55,-61.21 172,-28.5 176.29,-25.6 181.04,-23.14 185.94,-21.04"/>
<polygon fill="black" stroke="black" stroke-width="0.5" points="186.9,-22.54 190.89,-19.06 185.6,-19.29 186.9,-22.54"/>
</g>
<!-- ProcessFlatfieldL2 -->
<g id="node10" class="node">
<title>ProcessFlatfieldL2</title>
<g id="a_node10"><a xlink:href="../api/iris_pipeline.pipeline.ProcessFlatfieldL2.html#iris_pipeline.pipeline.ProcessFlatfieldL2" xlink:title="ProcessFlatfieldL2: Remove dark and normalize exposure to create" target="_top">
<polygon fill="white" stroke="black" stroke-width="0.5" points="459,-93 354,-93 354,-74 459,-74 459,-93"/>
<text text-anchor="middle" x="406.5" y="-81" font-family="Vera Sans, DejaVu Sans, Liberation Sans, Arial, Helvetica, sans" font-size="10.00">ProcessFlatfieldL2</text>
</a>
</g>
</g>
<!-- Pipeline&#45;&gt;ProcessFlatfieldL2 -->
<g id="edge9" class="edge">
<title>Pipeline&#45;&gt;ProcessFlatfieldL2</title>
<path fill="none" stroke="black" stroke-width="0.5" d="M264.87,-52.53C289.74,-58.01 327.02,-66.21 356.94,-72.81"/>
<polygon fill="black" stroke="black" stroke-width="0.5" points="356.8,-74.57 362.06,-73.93 357.55,-71.15 356.8,-74.57"/>
</g>
<!-- ProcessImagerL2Pipeline -->
<g id="node11" class="node">
<title>ProcessImagerL2Pipeline</title>
<g id="a_node11"><a xlink:href="../api/iris_pipeline.pipeline.ProcessImagerL2Pipeline.html#iris_pipeline.pipeline.ProcessImagerL2Pipeline" xlink:title="ProcessImagerL2Pipeline: Processes JWST imaging&#45;mode slope data from Level&#45;2a to" target="_top">
<polygon fill="white" stroke="black" stroke-width="0.5" points="476,-56 337,-56 337,-37 476,-37 476,-56"/>
<text text-anchor="middle" x="406.5" y="-44" font-family="Vera Sans, DejaVu Sans, Liberation Sans, Arial, Helvetica, sans" font-size="10.00">ProcessImagerL2Pipeline</text>
</a>
</g>
</g>
<!-- Pipeline&#45;&gt;ProcessImagerL2Pipeline -->
<g id="edge10" class="edge">
<title>Pipeline&#45;&gt;ProcessImagerL2Pipeline</title>
<path fill="none" stroke="black" stroke-width="0.5" d="M264.87,-46.5C283.09,-46.5 307.98,-46.5 331.76,-46.5"/>
<polygon fill="black" stroke="black" stroke-width="0.5" points="331.81,-48.25 336.81,-46.5 331.81,-44.75 331.81,-48.25"/>
</g>
<!-- ROPPipeline -->
<g id="node12" class="node">
<title>ROPPipeline</title>
<g id="a_node12"><a xlink:href="../api/iris_pipeline.pipeline.ROPPipeline.html#iris_pipeline.pipeline.ROPPipeline" xlink:title="Detector1Pipeline for IRIS" target="_top">
<polygon fill="white" stroke="black" stroke-width="0.5" points="444.5,-19 368.5,-19 368.5,0 444.5,0 444.5,-19"/>
<text text-anchor="middle" x="406.5" y="-7" font-family="Vera Sans, DejaVu Sans, Liberation Sans, Arial, Helvetica, sans" font-size="10.00">ROPPipeline</text>
</a>
</g>
</g>
<!-- Pipeline&#45;&gt;ROPPipeline -->
<g id="edge11" class="edge">
<title>Pipeline&#45;&gt;ROPPipeline</title>
<path fill="none" stroke="black" stroke-width="0.5" d="M264.87,-40.47C291.5,-34.61 332.35,-25.61 363.17,-18.82"/>
<polygon fill="black" stroke="black" stroke-width="0.5" points="363.91,-20.45 368.41,-17.67 363.15,-17.03 363.91,-20.45"/>
</g>
<!-- UnsupportedPythonError -->
<g id="node14" class="node">
<title>UnsupportedPythonError</title>
<g id="a_node14"><a xlink:href="../api/iris_pipeline.UnsupportedPythonError.html#iris_pipeline.UnsupportedPythonError" xlink:title="UnsupportedPythonError" target="_top">
<polygon fill="white" stroke="black" stroke-width="0.5" points="136,-204 0,-204 0,-185 136,-185 136,-204"/>
<text text-anchor="middle" x="68" y="-192" font-family="Vera Sans, DejaVu Sans, Liberation Sans, Arial, Helvetica, sans" font-size="10.00">UnsupportedPythonError</text>
</a>
</g>
</g>
</g>
</svg>
